<svg width="44" height="36" viewBox="0 0 44 36" fill="none" xmlns="http://www.w3.org/2000/svg">
<path d="M13.9288 2.76425C14.2968 2.19203 14.9305 1.84616 15.6109 1.84616H29.4068C30.9893 1.84616 31.9449 3.59707 31.0889 4.92807L20.0223 22.1338C19.6543 22.706 19.0206 23.0519 18.3402 23.0519H4.54435C2.96181 23.0519 2.00617 21.301 2.86225 19.97L13.9288 2.76425Z" fill="#1053D5"/>
<path d="M16.4233 25.0172C15.7429 25.0172 15.1092 25.3631 14.7412 25.9353L12.0311 30.1489C11.175 31.4799 12.1307 33.2308 13.7132 33.2308H28.3891C29.0695 33.2308 29.7032 32.8849 30.0712 32.3127L41.1377 15.1069C41.9938 13.7759 41.0382 12.025 39.4556 12.025H29.8697C29.1893 12.025 28.5556 12.3709 28.1876 12.9431L21.0121 24.0992C20.6441 24.6714 20.0104 25.0172 19.33 25.0172H16.4233Z" fill="#FF7020"/>
</svg>
